<svg xmlns="http://www.w3.org/2000/svg" id="canvas" viewBox="196.458 233.615 832.095 102.874"><path d="M 202.92,236.63 C 202.34 236.70, 202.07 236.90, 201.59 237.52 C 201.11 238.13, 200.84 238.58, 200.54 239.72 C 200.24 240.86, 200.20 241.62, 200.09 243.21 C 199.98 244.81, 200.04 245.74, 199.99 247.70 C 199.93 249.65, 199.92 250.75, 199.83 252.99 C 199.74 255.22, 199.61 256.42, 199.54 258.87 C 199.47 261.33, 199.48 262.71, 199.47 265.27 C 199.46 267.84, 199.44 269.15, 199.49 271.70 C 199.54 274.26, 199.60 275.58, 199.71 278.06 C 199.82 280.55, 199.91 281.81, 200.04 284.11 C 200.17 286.40, 200.20 287.52, 200.36 289.55 C 200.52 291.57, 200.67 292.53, 200.84 294.23 C 201.01 295.93, 201.04 296.71, 201.23 298.06 C 201.41 299.40, 201.56 300.06, 201.76 300.94 C 201.96 301.82, 202.02 301.95, 202.22 302.44 C 202.42 302.93, 202.51 303.16, 202.76 303.40 C 203.00 303.65, 203.19 303.64, 203.46 303.66 C 203.74 303.69, 203.88 303.63, 204.13 303.54 C 204.39 303.45, 204.53 303.49, 204.73 303.22 C 204.93 302.95, 205.03 302.69, 205.13 302.17 C 205.24 301.64, 205.23 301.49, 205.25 300.59 C 205.28 299.70, 205.32 299.02, 205.25 297.68 C 205.18 296.33, 205.05 295.54, 204.91 293.86 C 204.77 292.18, 204.67 291.26, 204.57 289.27 C 204.47 287.28, 204.48 286.18, 204.40 283.91 C 204.32 281.63, 204.24 280.34, 204.16 277.89 C 204.08 275.44, 204.01 274.16, 204.00 271.65 C 203.99 269.14, 204.05 267.85, 204.10 265.33 C 204.16 262.81, 204.15 261.47, 204.27 259.05 C 204.38 256.64, 204.51 255.48, 204.67 253.26 C 204.83 251.03, 204.93 249.88, 205.06 247.94 C 205.19 245.99, 205.24 245.06, 205.32 243.54 C 205.41 242.02, 205.51 241.38, 205.48 240.34 C 205.46 239.29, 205.39 238.96, 205.19 238.32 C 205.00 237.68, 204.97 237.46, 204.51 237.13 C 204.06 236.79, 203.51 236.55, 202.92 236.63" style="stroke: black; fill: black;"/><path d="M 219.12,243.06 C 218.69 243.38, 218.69 243.56, 218.51 244.05 C 218.33 244.54, 218.25 244.69, 218.22 245.49 C 218.19 246.30, 218.22 246.85, 218.36 248.09 C 218.51 249.33, 218.72 250.12, 218.96 251.71 C 219.20 253.30, 219.32 254.18, 219.55 256.03 C 219.79 257.87, 219.89 258.89, 220.14 260.94 C 220.39 262.99, 220.55 264.11, 220.80 266.28 C 221.05 268.45, 221.15 269.57, 221.38 271.79 C 221.61 274.02, 221.72 275.22, 221.94 277.40 C 222.15 279.57, 222.29 280.66, 222.46 282.65 C 222.63 284.65, 222.68 285.61, 222.77 287.36 C 222.87 289.11, 222.89 289.98, 222.94 291.41 C 222.99 292.83, 222.88 293.48, 223.04 294.48 C 223.20 295.48, 223.46 295.85, 223.75 296.39 C 224.04 296.93, 224.16 297.03, 224.49 297.19 C 224.83 297.35, 225.10 297.34, 225.43 297.17 C 225.75 297.00, 225.86 296.86, 226.13 296.33 C 226.39 295.80, 226.55 295.52, 226.75 294.53 C 226.94 293.55, 227.02 292.88, 227.08 291.41 C 227.14 289.94, 227.09 289.00, 227.03 287.18 C 226.98 285.37, 226.93 284.38, 226.81 282.34 C 226.69 280.31, 226.60 279.20, 226.43 277.00 C 226.26 274.80, 226.15 273.60, 225.95 271.35 C 225.75 269.11, 225.64 267.97, 225.42 265.78 C 225.20 263.59, 225.05 262.47, 224.84 260.41 C 224.63 258.36, 224.52 257.38, 224.36 255.52 C 224.21 253.66, 224.20 252.75, 224.07 251.12 C 223.93 249.48, 223.90 248.66, 223.69 247.35 C 223.48 246.03, 223.38 245.42, 223.02 244.54 C 222.65 243.67, 222.34 243.40, 221.87 242.98 C 221.41 242.57, 221.23 242.45, 220.68 242.46 C 220.13 242.48, 219.55 242.75, 219.12 243.06" style="stroke: black; fill: black;"/><path d="M 201.56,273.01 C 201.85 273.59, 202.26 273.89, 203.15 274.21 C 204.03 274.54, 204.66 274.56, 205.98 274.64 C 207.29 274.72, 208.07 274.63, 209.72 274.61 C 211.36 274.60, 212.45 274.69, 214.21 274.56 C 215.97 274.43, 217.05 274.32, 218.51 273.98 C 219.97 273.64, 220.92 273.41, 221.53 272.84 C 222.14 272.28, 222.16 271.77, 221.57 271.17 C 220.98 270.58, 220.03 270.26, 218.56 269.88 C 217.09 269.50, 216.02 269.42, 214.23 269.27 C 212.44 269.13, 211.32 269.11, 209.61 269.16 C 207.89 269.21, 206.97 269.30, 205.67 269.53 C 204.37 269.77, 203.88 270.00, 203.09 270.35 C 202.30 270.70, 202.02 270.76, 201.72 271.29 C 201.41 271.82, 201.28 272.42, 201.56 273.01" style="stroke: black; fill: black;"/><path d="M 258.76,270.01 C 258.69 269.29, 258.28 268.76, 257.53 268.15 C 256.78 267.55, 256.16 267.32, 255.00 266.99 C 253.84 266.66, 253.07 266.51, 251.71 266.50 C 250.36 266.50, 249.62 266.68, 248.22 266.95 C 246.81 267.23, 246.13 267.38, 244.69 267.89 C 243.26 268.39, 242.52 268.71, 241.05 269.49 C 239.58 270.26, 238.75 270.66, 237.35 271.76 C 235.94 272.86, 235.20 273.59, 234.04 274.96 C 232.87 276.34, 232.35 277.10, 231.51 278.65 C 230.67 280.20, 230.27 281.06, 229.85 282.71 C 229.44 284.37, 229.31 285.28, 229.43 286.91 C 229.55 288.53, 229.78 289.40, 230.44 290.85 C 231.11 292.29, 231.61 293.02, 232.76 294.12 C 233.90 295.22, 234.66 295.71, 236.17 296.36 C 237.67 297.02, 238.62 297.25, 240.30 297.40 C 241.98 297.54, 242.87 297.44, 244.56 297.10 C 246.25 296.77, 247.13 296.47, 248.74 295.70 C 250.36 294.94, 251.20 294.40, 252.64 293.28 C 254.08 292.16, 254.73 291.48, 255.94 290.11 C 257.15 288.73, 257.78 287.90, 258.71 286.40 C 259.64 284.90, 259.94 284.14, 260.59 282.62 C 261.23 281.10, 261.52 280.31, 261.91 278.80 C 262.31 277.28, 262.52 276.40, 262.56 275.05 C 262.59 273.70, 262.54 272.92, 262.10 272.05 C 261.65 271.18, 261.08 270.80, 260.33 270.70 C 259.59 270.59, 258.96 270.88, 258.37 271.53 C 257.77 272.17, 257.51 272.75, 257.35 273.93 C 257.20 275.11, 257.40 275.93, 257.60 277.45 C 257.81 278.97, 258.05 279.84, 258.38 281.54 C 258.71 283.24, 258.85 284.22, 259.25 285.96 C 259.66 287.70, 259.91 288.62, 260.39 290.24 C 260.87 291.87, 261.11 292.64, 261.67 294.10 C 262.24 295.56, 262.43 296.36, 263.22 297.54 C 264.00 298.71, 264.64 299.43, 265.60 299.97 C 266.57 300.51, 267.42 300.45, 268.04 300.23 C 268.67 300.01, 268.75 299.42, 268.71 298.88 C 268.67 298.33, 268.22 298.19, 267.85 297.51 C 267.48 296.83, 267.29 296.45, 266.86 295.47 C 266.43 294.50, 266.12 293.91, 265.69 292.64 C 265.25 291.36, 265.06 290.60, 264.70 289.09 C 264.34 287.57, 264.15 286.70, 263.89 285.05 C 263.63 283.41, 263.53 282.50, 263.40 280.84 C 263.26 279.19, 263.38 278.26, 263.22 276.77 C 263.06 275.29, 262.99 274.47, 262.61 273.40 C 262.23 272.34, 261.95 271.92, 261.33 271.46 C 260.71 271.00, 260.10 270.91, 259.51 271.11 C 258.91 271.31, 258.63 271.74, 258.36 272.47 C 258.09 273.19, 258.30 273.68, 258.16 274.74 C 258.02 275.79, 257.98 276.49, 257.68 277.73 C 257.38 278.97, 257.20 279.70, 256.66 280.95 C 256.12 282.20, 255.82 282.78, 254.99 284.00 C 254.16 285.23, 253.55 285.92, 252.52 287.07 C 251.49 288.22, 250.99 288.82, 249.85 289.73 C 248.70 290.65, 248.03 291.05, 246.79 291.66 C 245.56 292.27, 244.89 292.53, 243.67 292.79 C 242.45 293.05, 241.86 293.06, 240.69 292.95 C 239.52 292.85, 238.85 292.65, 237.82 292.28 C 236.80 291.90, 236.29 291.71, 235.56 291.08 C 234.82 290.45, 234.56 290.03, 234.16 289.15 C 233.76 288.26, 233.59 287.72, 233.55 286.66 C 233.51 285.60, 233.60 285.01, 233.96 283.84 C 234.32 282.67, 234.65 282.00, 235.35 280.82 C 236.05 279.64, 236.50 279.02, 237.46 277.95 C 238.43 276.88, 239.04 276.32, 240.19 275.45 C 241.34 274.57, 242.03 274.23, 243.24 273.57 C 244.45 272.91, 245.09 272.57, 246.24 272.13 C 247.40 271.69, 247.96 271.55, 249.01 271.38 C 250.06 271.22, 250.54 271.22, 251.52 271.31 C 252.49 271.40, 252.97 271.67, 253.87 271.82 C 254.78 271.97, 255.25 272.08, 256.06 272.07 C 256.87 272.05, 257.38 272.14, 257.92 271.73 C 258.46 271.32, 258.84 270.72, 258.76 270.01" style="stroke: black; fill: black;"/><path d="M 277.23,274.12 C 276.64 274.36, 276.34 274.72, 276.01 275.51 C 275.68 276.31, 275.60 276.91, 275.60 278.09 C 275.60 279.26, 275.70 279.97, 275.99 281.39 C 276.28 282.80, 276.63 283.64, 277.04 285.16 C 277.45 286.69, 277.63 287.38, 278.02 289.02 C 278.42 290.66, 278.63 291.58, 279.00 293.37 C 279.38 295.16, 279.51 296.13, 279.89 297.98 C 280.26 299.84, 280.52 300.84, 280.89 302.65 C 281.25 304.45, 281.47 305.32, 281.72 307.02 C 281.96 308.72, 281.97 309.55, 282.13 311.15 C 282.28 312.74, 282.26 313.72, 282.49 315.00 C 282.72 316.28, 282.95 316.74, 283.28 317.52 C 283.62 318.31, 283.75 318.64, 284.16 318.92 C 284.57 319.19, 284.93 319.20, 285.34 318.91 C 285.74 318.61, 285.90 318.28, 286.18 317.45 C 286.47 316.61, 286.70 316.10, 286.78 314.75 C 286.86 313.41, 286.74 312.40, 286.58 310.73 C 286.43 309.06, 286.27 308.18, 286.01 306.40 C 285.76 304.62, 285.63 303.69, 285.31 301.83 C 285.00 299.96, 284.79 298.97, 284.44 297.09 C 284.09 295.21, 283.93 294.24, 283.55 292.42 C 283.17 290.61, 282.89 289.67, 282.53 288.00 C 282.18 286.34, 282.05 285.62, 281.77 284.10 C 281.50 282.58, 281.39 281.69, 281.15 280.38 C 280.90 279.07, 280.79 278.51, 280.55 277.54 C 280.31 276.58, 280.26 276.20, 279.95 275.55 C 279.63 274.91, 279.54 274.59, 279.00 274.30 C 278.45 274.02, 277.83 273.88, 277.23 274.12" style="stroke: black; fill: black;"/><path d="M 275.28,278.12 C 276.02 277.83, 276.39 276.99, 277.10 276.06 C 277.81 275.12, 278.02 274.48, 278.82 273.46 C 279.61 272.44, 280.07 271.77, 281.07 270.96 C 282.07 270.15, 282.57 269.85, 283.83 269.39 C 285.08 268.94, 285.91 268.82, 287.35 268.69 C 288.80 268.56, 289.60 268.56, 291.06 268.73 C 292.51 268.89, 293.32 269.03, 294.63 269.52 C 295.93 270.01, 296.55 270.38, 297.58 271.18 C 298.61 271.98, 299.11 272.51, 299.77 273.51 C 300.42 274.50, 300.64 275.05, 300.87 276.15 C 301.09 277.25, 301.10 277.85, 300.90 279.01 C 300.70 280.17, 300.47 280.78, 299.87 281.97 C 299.26 283.15, 298.84 283.82, 297.89 284.94 C 296.94 286.07, 296.35 286.63, 295.10 287.60 C 293.85 288.56, 293.05 289.01, 291.66 289.75 C 290.26 290.49, 289.53 290.84, 288.12 291.28 C 286.71 291.73, 285.90 291.79, 284.60 291.96 C 283.30 292.12, 282.59 292.11, 281.61 292.11 C 280.63 292.11, 280.30 291.98, 279.70 291.95 C 279.09 291.92, 278.95 291.95, 278.58 291.96 C 278.20 291.98, 278.14 291.87, 277.84 292.02 C 277.53 292.17, 277.16 292.34, 277.03 292.71 C 276.91 293.08, 276.92 293.36, 277.23 293.85 C 277.53 294.35, 277.76 294.73, 278.56 295.19 C 279.35 295.66, 279.90 295.94, 281.20 296.17 C 282.50 296.39, 283.41 296.46, 285.05 296.33 C 286.68 296.19, 287.66 296.01, 289.39 295.50 C 291.13 294.98, 292.01 294.61, 293.71 293.76 C 295.42 292.91, 296.37 292.42, 297.91 291.24 C 299.45 290.06, 300.22 289.32, 301.41 287.85 C 302.60 286.37, 303.14 285.50, 303.87 283.85 C 304.60 282.20, 304.86 281.30, 305.06 279.59 C 305.26 277.89, 305.24 276.98, 304.89 275.31 C 304.54 273.65, 304.23 272.76, 303.31 271.26 C 302.39 269.76, 301.70 268.99, 300.28 267.82 C 298.87 266.66, 297.98 266.15, 296.24 265.44 C 294.50 264.72, 293.46 264.49, 291.59 264.26 C 289.73 264.02, 288.74 264.07, 286.90 264.27 C 285.06 264.47, 284.11 264.68, 282.38 265.27 C 280.66 265.86, 279.79 266.17, 278.29 267.22 C 276.78 268.27, 275.88 269.10, 274.86 270.54 C 273.85 271.97, 273.50 272.98, 273.20 274.38 C 272.91 275.78, 272.97 276.78, 273.39 277.53 C 273.80 278.28, 274.54 278.42, 275.28 278.12" style="stroke: black; fill: black;"/><path d="M 308.26,272.92 C 307.77 273.30, 307.68 273.65, 307.53 274.44 C 307.38 275.22, 307.36 275.72, 307.51 276.84 C 307.66 277.96, 307.88 278.63, 308.26 280.04 C 308.65 281.44, 308.97 282.22, 309.42 283.88 C 309.86 285.54, 310.03 286.43, 310.50 288.34 C 310.96 290.25, 311.25 291.39, 311.75 293.44 C 312.24 295.49, 312.53 296.51, 312.97 298.59 C 313.42 300.67, 313.60 301.78, 313.97 303.84 C 314.34 305.90, 314.50 306.99, 314.81 308.89 C 315.13 310.79, 315.27 311.75, 315.55 313.33 C 315.83 314.91, 315.98 315.67, 316.21 316.79 C 316.44 317.91, 316.43 318.30, 316.69 318.94 C 316.96 319.58, 317.24 319.76, 317.54 319.98 C 317.83 320.20, 318.00 320.01, 318.16 320.05 C 318.32 320.09, 318.14 320.18, 318.33 320.19 C 318.52 320.19, 318.78 320.35, 319.10 320.07 C 319.42 319.78, 319.76 319.50, 319.94 318.75 C 320.13 318.01, 320.07 317.55, 320.03 316.35 C 319.99 315.15, 319.92 314.37, 319.75 312.75 C 319.59 311.12, 319.46 310.16, 319.20 308.22 C 318.93 306.29, 318.77 305.19, 318.42 303.08 C 318.08 300.97, 317.88 299.82, 317.47 297.68 C 317.05 295.54, 316.81 294.46, 316.35 292.38 C 315.90 290.29, 315.62 289.17, 315.18 287.24 C 314.75 285.30, 314.55 284.42, 314.17 282.71 C 313.79 281.01, 313.63 280.13, 313.26 278.71 C 312.90 277.29, 312.72 276.66, 312.33 275.63 C 311.94 274.60, 311.78 274.20, 311.31 273.57 C 310.84 272.95, 310.59 272.65, 309.98 272.52 C 309.37 272.39, 308.75 272.53, 308.26 272.92" style="stroke: black; fill: black;"/><path d="M 307.81,277.12 C 308.47 277.14, 308.77 276.68, 309.47 276.26 C 310.16 275.84, 310.43 275.62, 311.29 275.02 C 312.15 274.41, 312.64 273.85, 313.77 273.24 C 314.89 272.64, 315.49 272.43, 316.93 272.01 C 318.36 271.59, 319.34 271.40, 320.93 271.15 C 322.52 270.90, 323.37 270.77, 324.88 270.77 C 326.39 270.76, 327.20 270.88, 328.50 271.13 C 329.80 271.38, 330.45 271.59, 331.39 272.03 C 332.33 272.46, 332.71 272.73, 333.20 273.29 C 333.69 273.84, 333.80 274.14, 333.84 274.80 C 333.88 275.46, 333.77 275.79, 333.39 276.58 C 333.01 277.37, 332.65 277.82, 331.96 278.75 C 331.26 279.67, 330.79 280.28, 329.92 281.22 C 329.05 282.16, 328.60 282.66, 327.63 283.44 C 326.66 284.23, 326.08 284.57, 325.07 285.14 C 324.06 285.71, 323.58 286.00, 322.59 286.30 C 321.59 286.60, 321.07 286.55, 320.09 286.65 C 319.11 286.76, 318.47 286.71, 317.69 286.82 C 316.91 286.93, 316.64 287.01, 316.19 287.21 C 315.74 287.42, 315.65 287.61, 315.45 287.83 C 315.25 288.06, 315.32 288.16, 315.19 288.34 C 315.06 288.51, 314.87 288.48, 314.80 288.72 C 314.74 288.96, 314.64 289.18, 314.87 289.55 C 315.09 289.92, 315.34 290.28, 315.91 290.56 C 316.48 290.85, 316.79 290.89, 317.72 290.99 C 318.65 291.09, 319.33 291.19, 320.56 291.06 C 321.79 290.93, 322.55 290.76, 323.86 290.33 C 325.16 289.91, 325.79 289.59, 327.09 288.94 C 328.38 288.28, 329.08 287.95, 330.34 287.06 C 331.60 286.18, 332.27 285.65, 333.38 284.51 C 334.50 283.38, 335.11 282.70, 335.91 281.37 C 336.71 280.04, 337.08 279.28, 337.40 277.86 C 337.73 276.44, 337.80 275.66, 337.55 274.28 C 337.30 272.91, 337.00 272.15, 336.16 270.99 C 335.31 269.83, 334.66 269.29, 333.33 268.48 C 331.99 267.66, 331.16 267.37, 329.49 266.93 C 327.82 266.48, 326.83 266.33, 324.99 266.24 C 323.16 266.15, 322.17 266.26, 320.30 266.48 C 318.43 266.70, 317.41 266.87, 315.64 267.34 C 313.86 267.81, 312.94 268.03, 311.43 268.82 C 309.92 269.60, 309.09 270.28, 308.08 271.28 C 307.07 272.29, 306.75 272.88, 306.37 273.85 C 305.98 274.82, 305.86 275.48, 306.15 276.13 C 306.44 276.79, 307.15 277.09, 307.81 277.12" style="stroke: black; fill: black;"/><path d="M 348.11,265.08 C 347.51 265.22, 347.25 265.49, 346.85 266.13 C 346.44 266.77, 346.22 267.23, 346.08 268.29 C 345.94 269.34, 345.94 270.11, 346.15 271.40 C 346.36 272.69, 346.69 273.43, 347.13 274.72 C 347.57 276.02, 347.81 276.59, 348.37 277.87 C 348.92 279.15, 349.11 279.89, 349.90 281.12 C 350.69 282.34, 351.28 283.00, 352.31 283.98 C 353.35 284.96, 353.89 285.30, 355.07 286.02 C 356.25 286.73, 356.91 287.12, 358.22 287.56 C 359.53 288.00, 360.31 288.16, 361.64 288.22 C 362.98 288.28, 363.66 288.14, 364.88 287.85 C 366.10 287.56, 366.65 287.33, 367.73 286.75 C 368.81 286.18, 369.35 285.82, 370.27 284.99 C 371.19 284.15, 371.65 283.59, 372.32 282.56 C 373.00 281.53, 373.16 280.90, 373.63 279.83 C 374.10 278.76, 374.30 278.27, 374.67 277.20 C 375.04 276.13, 375.29 275.51, 375.49 274.46 C 375.69 273.41, 375.74 272.75, 375.68 271.94 C 375.61 271.12, 375.52 270.79, 375.17 270.38 C 374.82 269.97, 374.49 269.87, 373.91 269.87 C 373.34 269.88, 372.74 269.90, 372.28 270.39 C 371.82 270.89, 371.58 271.39, 371.59 272.35 C 371.60 273.32, 371.91 273.96, 372.32 275.24 C 372.73 276.51, 373.11 277.22, 373.66 278.71 C 374.21 280.20, 374.49 281.07, 375.06 282.70 C 375.62 284.33, 375.91 285.11, 376.50 286.86 C 377.09 288.61, 377.38 289.66, 377.98 291.46 C 378.58 293.26, 378.95 294.07, 379.50 295.84 C 380.04 297.62, 380.26 298.59, 380.72 300.35 C 381.18 302.12, 381.46 303.02, 381.81 304.67 C 382.15 306.31, 382.26 307.12, 382.43 308.59 C 382.61 310.07, 382.65 310.81, 382.69 312.04 C 382.74 313.27, 382.76 313.86, 382.64 314.72 C 382.53 315.58, 382.41 315.82, 382.12 316.34 C 381.83 316.87, 381.60 317.06, 381.19 317.33 C 380.78 317.61, 380.61 317.68, 380.07 317.72 C 379.53 317.75, 379.24 317.66, 378.48 317.49 C 377.72 317.32, 377.23 317.18, 376.26 316.87 C 375.29 316.56, 374.69 316.40, 373.64 315.95 C 372.59 315.49, 372.04 315.17, 371.00 314.59 C 369.95 314.00, 369.33 313.67, 368.41 313.00 C 367.50 312.34, 367.07 312.07, 366.41 311.27 C 365.76 310.47, 365.68 309.89, 365.14 309.02 C 364.61 308.15, 364.32 307.59, 363.75 306.94 C 363.17 306.28, 362.85 305.91, 362.26 305.77 C 361.68 305.62, 361.23 305.70, 360.84 306.19 C 360.45 306.69, 360.26 307.26, 360.32 308.25 C 360.38 309.25, 360.57 310.02, 361.12 311.18 C 361.68 312.34, 362.18 313.00, 363.10 314.06 C 364.01 315.13, 364.59 315.60, 365.69 316.50 C 366.79 317.41, 367.39 317.82, 368.59 318.58 C 369.80 319.35, 370.43 319.75, 371.71 320.33 C 372.99 320.90, 373.72 321.12, 374.98 321.44 C 376.23 321.75, 376.79 321.85, 377.98 321.90 C 379.17 321.96, 379.82 322.02, 380.92 321.70 C 382.02 321.38, 382.63 321.01, 383.49 320.30 C 384.35 319.59, 384.63 319.11, 385.21 318.16 C 385.79 317.20, 386.06 316.74, 386.39 315.52 C 386.72 314.30, 386.81 313.53, 386.86 312.06 C 386.92 310.59, 386.81 309.79, 386.66 308.15 C 386.51 306.50, 386.44 305.61, 386.12 303.83 C 385.79 302.04, 385.51 301.09, 385.04 299.24 C 384.57 297.38, 384.31 296.39, 383.77 294.56 C 383.23 292.72, 382.90 291.88, 382.33 290.06 C 381.76 288.23, 381.47 287.18, 380.92 285.43 C 380.36 283.67, 380.03 282.92, 379.57 281.28 C 379.10 279.63, 378.98 278.73, 378.59 277.19 C 378.21 275.66, 378.01 274.83, 377.65 273.60 C 377.30 272.37, 377.27 271.85, 376.83 271.05 C 376.40 270.24, 376.15 269.91, 375.48 269.59 C 374.81 269.26, 374.16 269.31, 373.48 269.42 C 372.79 269.52, 372.48 269.70, 372.05 270.12 C 371.63 270.54, 371.58 270.83, 371.37 271.52 C 371.16 272.21, 371.18 272.71, 371.00 273.56 C 370.82 274.42, 370.76 274.89, 370.47 275.78 C 370.18 276.68, 369.95 277.16, 369.56 278.02 C 369.16 278.89, 368.99 279.36, 368.51 280.13 C 368.04 280.90, 367.75 281.24, 367.19 281.86 C 366.63 282.47, 366.34 282.81, 365.71 283.22 C 365.08 283.62, 364.78 283.75, 364.03 283.88 C 363.29 284.01, 362.86 283.96, 361.96 283.85 C 361.07 283.75, 360.53 283.65, 359.58 283.36 C 358.64 283.06, 358.08 282.88, 357.24 282.39 C 356.39 281.89, 356.07 281.63, 355.36 280.89 C 354.66 280.16, 354.29 279.65, 353.71 278.72 C 353.14 277.78, 352.89 277.25, 352.51 276.20 C 352.13 275.15, 352.01 274.58, 351.80 273.47 C 351.60 272.36, 351.61 271.71, 351.50 270.66 C 351.38 269.61, 351.40 269.03, 351.23 268.21 C 351.07 267.38, 350.94 267.08, 350.66 266.53 C 350.38 265.97, 350.34 265.72, 349.83 265.43 C 349.32 265.14, 348.71 264.94, 348.11 265.08" style="stroke: black; fill: black;"/><path d="M 453.76,268.60 C 453.22 268.91, 453.21 269.25, 452.91 269.97 C 452.62 270.68, 452.38 271.08, 452.29 272.17 C 452.19 273.26, 452.33 274.07, 452.43 275.43 C 452.54 276.79, 452.69 277.47, 452.82 278.97 C 452.95 280.46, 452.92 281.28, 453.09 282.91 C 453.25 284.54, 453.42 285.46, 453.65 287.10 C 453.88 288.75, 454.01 289.54, 454.24 291.13 C 454.47 292.72, 454.49 293.59, 454.78 295.04 C 455.08 296.49, 455.12 297.39, 455.72 298.37 C 456.32 299.35, 456.90 299.75, 457.79 299.94 C 458.67 300.13, 459.40 299.98, 460.15 299.31 C 460.90 298.64, 461.23 297.95, 461.54 296.60 C 461.85 295.25, 461.85 294.33, 461.69 292.57 C 461.53 290.80, 461.19 289.74, 460.76 287.79 C 460.33 285.84, 460.03 284.84, 459.53 282.83 C 459.02 280.83, 458.80 279.86, 458.24 277.77 C 457.68 275.68, 457.38 274.51, 456.71 272.38 C 456.04 270.25, 455.53 269.18, 454.88 267.12 C 454.23 265.06, 453.95 264.04, 453.45 262.07 C 452.96 260.11, 452.73 259.11, 452.41 257.28 C 452.08 255.45, 451.93 254.51, 451.81 252.91 C 451.69 251.31, 451.66 250.57, 451.81 249.28 C 451.96 247.98, 452.10 247.43, 452.57 246.43 C 453.04 245.43, 453.37 245.00, 454.17 244.29 C 454.98 243.59, 455.49 243.31, 456.58 242.91 C 457.67 242.51, 458.32 242.35, 459.64 242.30 C 460.95 242.25, 461.71 242.33, 463.16 242.66 C 464.62 242.98, 465.52 243.26, 466.92 243.93 C 468.33 244.59, 469.06 245.02, 470.20 245.98 C 471.34 246.95, 471.87 247.54, 472.62 248.75 C 473.38 249.96, 473.65 250.67, 473.97 252.05 C 474.29 253.43, 474.32 254.20, 474.22 255.64 C 474.13 257.08, 473.94 257.86, 473.51 259.25 C 473.09 260.65, 472.82 261.37, 472.10 262.62 C 471.38 263.87, 470.88 264.44, 469.92 265.51 C 468.95 266.57, 468.28 267.06, 467.28 267.94 C 466.28 268.83, 465.69 269.22, 464.91 269.93 C 464.13 270.64, 463.84 270.94, 463.39 271.48 C 462.93 272.03, 462.71 272.20, 462.64 272.66 C 462.57 273.12, 462.65 273.49, 463.05 273.78 C 463.45 274.06, 463.81 274.17, 464.64 274.10 C 465.48 274.03, 466.12 273.96, 467.23 273.41 C 468.34 272.86, 468.97 272.33, 470.17 271.34 C 471.38 270.35, 472.09 269.76, 473.24 268.45 C 474.38 267.14, 475.00 266.36, 475.89 264.78 C 476.78 263.19, 477.17 262.30, 477.70 260.52 C 478.24 258.74, 478.48 257.76, 478.57 255.87 C 478.65 253.97, 478.59 252.91, 478.13 251.05 C 477.67 249.18, 477.26 248.21, 476.26 246.54 C 475.26 244.87, 474.59 244.04, 473.13 242.69 C 471.67 241.34, 470.76 240.70, 468.96 239.79 C 467.15 238.88, 466.04 238.52, 464.11 238.13 C 462.19 237.75, 461.18 237.71, 459.34 237.86 C 457.51 238.02, 456.56 238.22, 454.96 238.91 C 453.37 239.60, 452.56 240.14, 451.37 241.31 C 450.18 242.48, 449.72 243.27, 449.02 244.75 C 448.32 246.23, 448.15 247.03, 447.87 248.70 C 447.58 250.38, 447.56 251.26, 447.62 253.12 C 447.67 254.98, 447.83 256.00, 448.15 258.00 C 448.46 259.99, 448.72 261.01, 449.20 263.10 C 449.68 265.19, 449.93 266.30, 450.56 268.44 C 451.18 270.57, 451.67 271.66, 452.34 273.76 C 453.00 275.86, 453.33 276.92, 453.86 278.94 C 454.40 280.96, 454.62 281.92, 455.01 283.86 C 455.40 285.80, 455.60 286.82, 455.82 288.64 C 456.04 290.47, 456.01 291.41, 456.11 292.99 C 456.21 294.57, 456.03 295.39, 456.31 296.54 C 456.60 297.70, 457.01 298.30, 457.52 298.76 C 458.04 299.22, 458.47 299.12, 458.88 298.84 C 459.29 298.55, 459.47 298.24, 459.57 297.33 C 459.66 296.43, 459.50 295.67, 459.34 294.30 C 459.18 292.93, 458.98 292.04, 458.76 290.48 C 458.53 288.91, 458.41 288.08, 458.20 286.49 C 458.00 284.89, 457.83 284.06, 457.72 282.51 C 457.61 280.96, 457.67 280.23, 457.66 278.74 C 457.65 277.26, 457.77 276.43, 457.69 275.07 C 457.61 273.71, 457.46 272.98, 457.26 271.95 C 457.07 270.91, 457.05 270.58, 456.72 269.88 C 456.40 269.18, 456.22 268.69, 455.63 268.44 C 455.04 268.18, 454.30 268.29, 453.76 268.60" style="stroke: black; fill: black;"/><path d="M 476.17,268.51 C 476.19 269.19, 476.58 269.56, 477.11 270.23 C 477.64 270.91, 478.04 271.19, 478.84 271.90 C 479.64 272.60, 480.18 272.94, 481.11 273.74 C 482.04 274.55, 482.53 274.99, 483.48 275.93 C 484.43 276.87, 484.93 277.40, 485.85 278.44 C 486.76 279.48, 487.29 280.05, 488.06 281.14 C 488.82 282.24, 489.09 282.77, 489.68 283.92 C 490.26 285.07, 490.54 285.77, 490.97 286.87 C 491.41 287.97, 491.67 288.46, 491.85 289.43 C 492.04 290.40, 491.97 290.81, 491.89 291.73 C 491.81 292.64, 491.70 293.15, 491.44 293.98 C 491.18 294.82, 491.05 295.19, 490.58 295.91 C 490.10 296.63, 489.77 296.98, 489.07 297.57 C 488.36 298.17, 488.02 298.43, 487.04 298.89 C 486.06 299.35, 485.49 299.56, 484.17 299.86 C 482.85 300.17, 482.02 300.22, 480.44 300.43 C 478.85 300.63, 477.98 300.78, 476.25 300.88 C 474.52 300.99, 473.61 300.98, 471.78 300.93 C 469.95 300.88, 468.95 300.77, 467.10 300.64 C 465.25 300.51, 464.21 300.51, 462.52 300.27 C 460.84 300.03, 460.09 299.82, 458.68 299.44 C 457.27 299.06, 456.59 298.78, 455.48 298.36 C 454.37 297.95, 454.00 297.71, 453.15 297.39 C 452.29 297.06, 451.82 296.64, 451.21 296.73 C 450.60 296.83, 450.12 297.20, 450.11 297.88 C 450.10 298.55, 450.42 299.27, 451.15 300.11 C 451.89 300.95, 452.52 301.38, 453.78 302.06 C 455.04 302.74, 455.86 302.99, 457.46 303.51 C 459.07 304.03, 459.94 304.32, 461.79 304.67 C 463.65 305.01, 464.77 305.08, 466.74 305.24 C 468.71 305.41, 469.71 305.44, 471.66 305.49 C 473.60 305.55, 474.58 305.57, 476.46 305.51 C 478.34 305.44, 479.26 305.39, 481.04 305.16 C 482.83 304.93, 483.79 304.86, 485.39 304.38 C 486.99 303.90, 487.75 303.48, 489.04 302.77 C 490.34 302.06, 490.83 301.71, 491.86 300.81 C 492.89 299.91, 493.47 299.39, 494.19 298.26 C 494.92 297.13, 495.12 296.42, 495.47 295.17 C 495.82 293.93, 495.87 293.32, 495.95 292.04 C 496.04 290.76, 496.09 290.12, 495.90 288.79 C 495.72 287.46, 495.51 286.76, 495.05 285.40 C 494.59 284.04, 494.28 283.33, 493.63 281.97 C 492.97 280.62, 492.65 279.93, 491.79 278.62 C 490.94 277.31, 490.34 276.61, 489.35 275.43 C 488.36 274.25, 487.80 273.80, 486.83 272.73 C 485.85 271.66, 485.49 271.06, 484.49 270.09 C 483.49 269.11, 482.89 268.54, 481.83 267.86 C 480.78 267.19, 480.16 266.91, 479.21 266.70 C 478.25 266.50, 477.65 266.47, 477.04 266.83 C 476.44 267.19, 476.16 267.83, 476.17 268.51" style="stroke: black; fill: black;"/><path d="M 508.42,274.01 C 507.78 274.26, 507.57 274.70, 507.17 275.43 C 506.77 276.15, 506.60 276.64, 506.41 277.63 C 506.23 278.62, 506.30 279.27, 506.26 280.39 C 506.21 281.50, 506.19 282.04, 506.19 283.21 C 506.19 284.37, 506.19 285.05, 506.25 286.21 C 506.31 287.37, 506.41 287.95, 506.49 289.01 C 506.58 290.07, 506.55 290.55, 506.67 291.51 C 506.79 292.47, 506.84 293.08, 507.10 293.81 C 507.37 294.53, 507.64 294.74, 508.00 295.13 C 508.36 295.52, 508.48 295.65, 508.91 295.76 C 509.33 295.87, 509.73 295.89, 510.13 295.67 C 510.53 295.44, 510.70 295.16, 510.91 294.64 C 511.12 294.12, 511.17 293.77, 511.17 293.06 C 511.17 292.36, 510.98 291.96, 510.93 291.11 C 510.88 290.25, 510.93 289.82, 510.91 288.81 C 510.90 287.79, 510.89 287.13, 510.87 286.03 C 510.84 284.94, 510.73 284.38, 510.79 283.32 C 510.84 282.27, 511.02 281.79, 511.14 280.76 C 511.26 279.73, 511.35 279.13, 511.38 278.17 C 511.41 277.21, 511.49 276.75, 511.29 275.96 C 511.08 275.16, 510.93 274.59, 510.35 274.20 C 509.78 273.81, 509.06 273.76, 508.42 274.01" style="stroke: black; fill: black;"/><path d="M 508.31,259.38 C 508.74 259.85, 508.95 260.17, 509.07 260.12 C 509.19 260.07, 509.09 259.77, 508.92 259.14 C 508.75 258.50, 508.61 257.51, 508.21 256.94 C 507.82 256.38, 507.22 256.15, 506.96 256.31 C 506.69 256.47, 506.63 257.15, 506.90 257.76 C 507.17 258.38, 507.87 258.91, 508.31 259.38" style="stroke: black; fill: black;"/><path d="M 525.46,274.49 C 524.88 274.82, 524.70 275.32, 524.47 276.08 C 524.24 276.85, 524.28 277.29, 524.32 278.30 C 524.35 279.31, 524.41 279.96, 524.64 281.14 C 524.86 282.32, 525.13 282.97, 525.43 284.21 C 525.73 285.45, 525.84 286.08, 526.13 287.34 C 526.42 288.60, 526.60 289.34, 526.88 290.49 C 527.16 291.65, 527.33 292.17, 527.52 293.11 C 527.71 294.06, 527.61 294.57, 527.84 295.21 C 528.07 295.84, 528.27 296.11, 528.67 296.29 C 529.08 296.48, 529.40 296.34, 529.85 296.14 C 530.30 295.94, 530.63 295.85, 530.91 295.30 C 531.18 294.75, 531.32 294.27, 531.20 293.37 C 531.09 292.47, 530.66 291.88, 530.34 290.80 C 530.01 289.72, 529.87 289.13, 529.57 287.96 C 529.26 286.79, 529.05 286.07, 528.81 284.94 C 528.58 283.80, 528.49 283.31, 528.41 282.29 C 528.33 281.28, 528.36 280.76, 528.43 279.85 C 528.50 278.93, 528.53 278.47, 528.76 277.72 C 529.00 276.97, 529.19 276.70, 529.62 276.12 C 530.06 275.54, 530.27 275.20, 530.95 274.83 C 531.63 274.46, 532.00 274.45, 533.02 274.25 C 534.03 274.05, 534.80 273.99, 536.04 273.84 C 537.28 273.69, 538.02 273.69, 539.24 273.51 C 540.45 273.33, 541.11 273.25, 542.10 272.94 C 543.08 272.63, 543.73 272.48, 544.15 271.97 C 544.58 271.45, 544.64 270.92, 544.24 270.36 C 543.83 269.80, 543.20 269.51, 542.15 269.18 C 541.10 268.84, 540.34 268.72, 538.98 268.68 C 537.62 268.64, 536.79 268.73, 535.35 268.96 C 533.90 269.20, 533.08 269.38, 531.76 269.85 C 530.44 270.32, 529.82 270.57, 528.73 271.32 C 527.64 272.06, 527.10 272.56, 526.31 273.58 C 525.53 274.59, 525.23 275.20, 524.81 276.38 C 524.40 277.55, 524.37 278.23, 524.24 279.45 C 524.11 280.67, 524.14 281.23, 524.15 282.46 C 524.16 283.69, 524.17 284.31, 524.29 285.60 C 524.41 286.88, 524.59 287.61, 524.76 288.88 C 524.92 290.15, 524.93 290.76, 525.10 291.95 C 525.28 293.15, 525.25 293.89, 525.63 294.85 C 526.01 295.82, 526.34 296.26, 527.02 296.79 C 527.71 297.31, 528.25 297.47, 529.05 297.48 C 529.84 297.49, 530.44 297.32, 531.00 296.83 C 531.56 296.34, 531.68 295.90, 531.84 295.03 C 532.01 294.17, 531.93 293.60, 531.82 292.50 C 531.72 291.40, 531.56 290.77, 531.34 289.54 C 531.11 288.32, 530.92 287.63, 530.68 286.38 C 530.44 285.12, 530.32 284.49, 530.13 283.27 C 529.93 282.05, 529.89 281.41, 529.71 280.27 C 529.54 279.13, 529.49 278.48, 529.24 277.56 C 528.98 276.64, 528.80 276.29, 528.42 275.66 C 528.05 275.04, 527.95 274.68, 527.36 274.44 C 526.76 274.21, 526.04 274.17, 525.46 274.49" style="stroke: black; fill: black;"/><path d="M 559.95,259.51 C 559.34 259.85, 559.13 260.42, 558.82 261.31 C 558.51 262.20, 558.43 262.79, 558.40 263.95 C 558.37 265.12, 558.52 265.86, 558.67 267.15 C 558.83 268.44, 558.99 269.04, 559.18 270.38 C 559.37 271.73, 559.40 272.39, 559.61 273.86 C 559.82 275.32, 559.95 276.14, 560.24 277.72 C 560.52 279.30, 560.69 280.12, 561.05 281.75 C 561.42 283.38, 561.62 284.27, 562.06 285.88 C 562.50 287.50, 562.79 288.30, 563.25 289.83 C 563.72 291.37, 563.90 292.18, 564.40 293.55 C 564.91 294.93, 565.21 295.71, 565.79 296.73 C 566.38 297.75, 566.77 298.11, 567.35 298.66 C 567.93 299.21, 568.20 299.40, 568.68 299.46 C 569.17 299.52, 569.51 299.36, 569.79 298.96 C 570.06 298.55, 570.07 298.20, 570.05 297.43 C 570.03 296.66, 569.97 296.16, 569.67 295.09 C 569.38 294.02, 569.01 293.40, 568.58 292.09 C 568.15 290.79, 567.94 290.04, 567.52 288.56 C 567.09 287.09, 566.84 286.30, 566.45 284.74 C 566.06 283.18, 565.91 282.35, 565.58 280.77 C 565.25 279.19, 565.10 278.37, 564.79 276.85 C 564.49 275.33, 564.29 274.57, 564.07 273.18 C 563.85 271.79, 563.78 271.20, 563.69 269.91 C 563.60 268.61, 563.68 267.95, 563.62 266.71 C 563.55 265.47, 563.49 264.79, 563.36 263.71 C 563.22 262.64, 563.22 262.18, 562.92 261.35 C 562.63 260.52, 562.49 259.93, 561.89 259.56 C 561.30 259.19, 560.57 259.16, 559.95 259.51" style="stroke: black; fill: black;"/><path d="M 552.07,284.01 C 552.50 284.49, 552.94 284.56, 553.82 284.70 C 554.70 284.83, 555.28 284.84, 556.47 284.68 C 557.67 284.51, 558.45 284.21, 559.81 283.87 C 561.16 283.54, 561.84 283.33, 563.26 283.00 C 564.68 282.66, 565.52 282.54, 566.91 282.19 C 568.30 281.85, 569.01 281.83, 570.21 281.29 C 571.41 280.75, 572.46 280.22, 572.90 279.48 C 573.33 278.74, 573.11 278.00, 572.38 277.58 C 571.66 277.15, 570.53 277.30, 569.27 277.34 C 568.01 277.38, 567.44 277.59, 566.07 277.77 C 564.69 277.96, 563.87 278.06, 562.39 278.25 C 560.92 278.45, 560.13 278.48, 558.70 278.75 C 557.26 279.01, 556.38 279.17, 555.21 279.59 C 554.04 280.02, 553.57 280.33, 552.85 280.86 C 552.14 281.40, 551.80 281.65, 551.64 282.28 C 551.48 282.91, 551.63 283.53, 552.07 284.01" style="stroke: black; fill: black;"/><path d="M 582.00,255.32 C 581.50 255.65, 581.37 255.90, 581.14 256.63 C 580.92 257.36, 580.82 257.86, 580.88 258.97 C 580.94 260.09, 581.13 260.83, 581.46 262.20 C 581.79 263.58, 582.13 264.33, 582.54 265.85 C 582.95 267.37, 583.14 268.18, 583.52 269.81 C 583.90 271.44, 584.12 272.30, 584.43 274.00 C 584.74 275.70, 584.84 276.60, 585.07 278.33 C 585.30 280.06, 585.35 280.94, 585.58 282.65 C 585.82 284.37, 585.95 285.30, 586.25 286.89 C 586.56 288.49, 586.77 289.27, 587.10 290.61 C 587.42 291.95, 587.52 292.55, 587.88 293.61 C 588.24 294.66, 588.32 295.26, 588.89 295.89 C 589.45 296.53, 589.94 296.73, 590.71 296.80 C 591.48 296.86, 592.03 296.66, 592.73 296.23 C 593.44 295.80, 593.82 295.45, 594.23 294.64 C 594.64 293.82, 594.64 293.22, 594.77 292.16 C 594.89 291.10, 594.73 290.46, 594.85 289.33 C 594.98 288.20, 595.09 287.60, 595.41 286.50 C 595.72 285.41, 595.92 284.86, 596.43 283.86 C 596.95 282.87, 597.27 282.39, 597.98 281.53 C 598.70 280.66, 599.18 280.25, 600.01 279.53 C 600.84 278.82, 601.30 278.42, 602.15 277.95 C 603.00 277.47, 603.41 277.31, 604.25 277.14 C 605.09 276.96, 605.57 276.93, 606.36 277.07 C 607.15 277.21, 607.45 277.36, 608.19 277.85 C 608.94 278.33, 609.35 278.70, 610.07 279.49 C 610.80 280.28, 611.17 280.74, 611.83 281.79 C 612.50 282.84, 612.79 283.47, 613.40 284.74 C 614.02 286.00, 614.38 286.73, 614.91 288.12 C 615.45 289.51, 615.63 290.25, 616.09 291.70 C 616.54 293.15, 616.72 293.98, 617.18 295.37 C 617.64 296.76, 617.74 297.52, 618.40 298.64 C 619.06 299.76, 619.72 300.66, 620.48 300.99 C 621.24 301.31, 621.88 300.99, 622.20 300.26 C 622.51 299.54, 622.22 298.59, 622.07 297.37 C 621.92 296.15, 621.76 295.57, 621.45 294.17 C 621.13 292.77, 620.92 291.93, 620.48 290.39 C 620.03 288.85, 619.81 288.01, 619.22 286.47 C 618.64 284.93, 618.27 284.14, 617.56 282.70 C 616.85 281.26, 616.52 280.55, 615.66 279.27 C 614.80 278.00, 614.33 277.34, 613.26 276.32 C 612.19 275.30, 611.54 274.83, 610.30 274.18 C 609.06 273.52, 608.41 273.27, 607.06 273.04 C 605.70 272.81, 604.89 272.81, 603.52 273.03 C 602.14 273.25, 601.46 273.53, 600.18 274.14 C 598.91 274.76, 598.28 275.19, 597.15 276.10 C 596.03 277.02, 595.48 277.58, 594.56 278.71 C 593.63 279.85, 593.24 280.50, 592.54 281.76 C 591.84 283.01, 591.58 283.67, 591.05 284.98 C 590.52 286.29, 590.29 287.01, 589.91 288.30 C 589.53 289.59, 589.31 290.30, 589.15 291.44 C 588.99 292.57, 588.93 293.17, 589.12 293.97 C 589.32 294.78, 589.66 295.13, 590.14 295.45 C 590.62 295.76, 591.13 295.74, 591.52 295.56 C 591.91 295.38, 592.04 295.14, 592.09 294.55 C 592.14 293.96, 591.93 293.55, 591.76 292.59 C 591.59 291.63, 591.47 291.03, 591.24 289.73 C 591.00 288.44, 590.85 287.66, 590.60 286.12 C 590.35 284.59, 590.19 283.74, 589.98 282.07 C 589.77 280.40, 589.74 279.55, 589.54 277.78 C 589.34 276.01, 589.27 275.01, 588.98 273.22 C 588.70 271.43, 588.44 270.51, 588.10 268.82 C 587.76 267.12, 587.58 266.30, 587.28 264.76 C 586.99 263.21, 586.88 262.45, 586.63 261.10 C 586.38 259.75, 586.36 259.05, 586.03 258.01 C 585.69 256.97, 585.42 256.50, 584.94 255.89 C 584.45 255.28, 584.20 255.09, 583.61 254.97 C 583.02 254.86, 582.49 254.98, 582.00 255.32" style="stroke: black; fill: black;"/><path d="M 652.52,282.58 C 652.82 281.93, 652.79 281.26, 652.44 280.39 C 652.10 279.51, 651.67 278.95, 650.80 278.21 C 649.93 277.48, 649.23 277.11, 648.09 276.70 C 646.94 276.29, 646.32 276.26, 645.06 276.15 C 643.79 276.04, 643.14 275.95, 641.77 276.14 C 640.40 276.33, 639.60 276.57, 638.22 277.11 C 636.85 277.65, 636.19 278.04, 634.90 278.85 C 633.61 279.67, 632.97 280.15, 631.78 281.20 C 630.59 282.25, 629.93 282.85, 628.95 284.11 C 627.97 285.38, 627.51 286.10, 626.87 287.50 C 626.23 288.90, 625.99 289.69, 625.75 291.11 C 625.51 292.53, 625.46 293.28, 625.68 294.62 C 625.91 295.97, 626.16 296.65, 626.86 297.82 C 627.55 299.00, 628.03 299.57, 629.14 300.48 C 630.26 301.40, 630.97 301.84, 632.42 302.38 C 633.88 302.93, 634.77 303.10, 636.42 303.23 C 638.07 303.35, 638.95 303.27, 640.65 303.02 C 642.35 302.78, 643.25 302.60, 644.92 302.01 C 646.59 301.41, 647.48 300.96, 649.02 300.04 C 650.57 299.12, 651.30 298.60, 652.64 297.42 C 653.97 296.23, 654.59 295.56, 655.69 294.13 C 656.79 292.70, 657.34 291.90, 658.15 290.28 C 658.96 288.65, 659.18 287.71, 659.73 285.99 C 660.27 284.28, 660.52 283.43, 660.88 281.71 C 661.24 279.99, 661.42 279.08, 661.52 277.40 C 661.63 275.72, 661.51 274.85, 661.39 273.31 C 661.28 271.78, 661.21 271.12, 660.95 269.73 C 660.69 268.33, 660.49 267.60, 660.09 266.33 C 659.69 265.07, 659.53 264.37, 658.96 263.42 C 658.38 262.47, 658.03 261.99, 657.20 261.56 C 656.37 261.14, 655.71 261.03, 654.82 261.31 C 653.94 261.60, 653.32 262.04, 652.78 263.00 C 652.24 263.96, 652.15 264.73, 652.12 266.13 C 652.08 267.53, 652.36 268.33, 652.63 270.01 C 652.89 271.68, 653.04 272.62, 653.45 274.50 C 653.85 276.38, 654.09 277.43, 654.65 279.39 C 655.20 281.35, 655.51 282.39, 656.21 284.31 C 656.91 286.23, 657.37 287.25, 658.15 288.99 C 658.92 290.74, 659.33 291.54, 660.07 293.06 C 660.82 294.58, 661.15 295.28, 661.87 296.60 C 662.59 297.91, 662.93 298.63, 663.68 299.64 C 664.43 300.65, 664.83 301.12, 665.61 301.66 C 666.39 302.21, 666.98 302.44, 667.58 302.36 C 668.18 302.29, 668.50 301.86, 668.61 301.31 C 668.72 300.76, 668.42 300.39, 668.12 299.62 C 667.83 298.85, 667.67 298.45, 667.16 297.45 C 666.64 296.45, 666.19 295.85, 665.53 294.62 C 664.88 293.38, 664.53 292.75, 663.88 291.28 C 663.22 289.81, 662.92 288.98, 662.26 287.29 C 661.60 285.59, 661.18 284.61, 660.57 282.79 C 659.96 280.96, 659.66 280.01, 659.20 278.17 C 658.74 276.34, 658.55 275.36, 658.27 273.60 C 658.00 271.83, 657.96 270.89, 657.81 269.34 C 657.66 267.78, 657.70 266.99, 657.52 265.81 C 657.33 264.63, 657.26 264.09, 656.89 263.43 C 656.52 262.77, 656.11 262.53, 655.66 262.51 C 655.21 262.49, 654.81 262.78, 654.66 263.33 C 654.51 263.88, 654.65 264.38, 654.91 265.26 C 655.17 266.15, 655.56 266.70, 655.95 267.75 C 656.35 268.81, 656.63 269.37, 656.88 270.54 C 657.13 271.70, 657.15 272.26, 657.20 273.56 C 657.26 274.87, 657.30 275.63, 657.16 277.07 C 657.03 278.51, 656.88 279.25, 656.53 280.76 C 656.19 282.28, 655.91 283.13, 655.44 284.65 C 654.97 286.16, 654.81 286.99, 654.18 288.36 C 653.54 289.72, 653.12 290.33, 652.24 291.48 C 651.36 292.64, 650.87 293.19, 649.77 294.13 C 648.68 295.06, 648.04 295.43, 646.77 296.15 C 645.49 296.87, 644.75 297.24, 643.40 297.71 C 642.05 298.18, 641.35 298.33, 640.02 298.51 C 638.69 298.69, 637.99 298.70, 636.77 298.61 C 635.56 298.53, 634.96 298.38, 633.95 298.06 C 632.94 297.74, 632.48 297.48, 631.72 297.00 C 630.97 296.53, 630.61 296.27, 630.17 295.69 C 629.73 295.11, 629.60 294.85, 629.54 294.10 C 629.48 293.36, 629.61 292.91, 629.86 291.97 C 630.12 291.03, 630.29 290.42, 630.81 289.41 C 631.34 288.41, 631.68 287.91, 632.48 286.95 C 633.28 286.00, 633.85 285.48, 634.81 284.63 C 635.78 283.78, 636.27 283.33, 637.30 282.70 C 638.32 282.08, 638.87 281.93, 639.93 281.53 C 640.99 281.13, 641.63 280.94, 642.60 280.71 C 643.57 280.48, 644.04 280.35, 644.78 280.37 C 645.52 280.39, 645.73 280.47, 646.29 280.81 C 646.85 281.14, 647.01 281.58, 647.58 282.05 C 648.15 282.52, 648.48 282.84, 649.15 283.16 C 649.81 283.49, 650.24 283.79, 650.92 283.68 C 651.59 283.56, 652.21 283.24, 652.52 282.58" style="stroke: black; fill: black;"/><path d="M 700.81,282.24 C 701.34 281.78, 701.47 281.20, 701.48 280.40 C 701.49 279.61, 701.36 279.13, 700.87 278.27 C 700.38 277.40, 699.96 276.78, 699.04 276.06 C 698.12 275.35, 697.47 275.06, 696.27 274.69 C 695.07 274.32, 694.41 274.26, 693.05 274.21 C 691.69 274.15, 690.97 274.15, 689.49 274.42 C 688.01 274.69, 687.13 274.95, 685.67 275.55 C 684.20 276.16, 683.49 276.56, 682.16 277.44 C 680.83 278.33, 680.13 278.81, 679.02 279.98 C 677.91 281.14, 677.38 281.87, 676.61 283.27 C 675.84 284.67, 675.57 285.48, 675.17 286.98 C 674.76 288.48, 674.60 289.27, 674.59 290.77 C 674.59 292.28, 674.70 293.10, 675.12 294.51 C 675.55 295.91, 675.89 296.62, 676.73 297.81 C 677.58 299.01, 678.12 299.61, 679.36 300.47 C 680.60 301.34, 681.42 301.73, 682.94 302.16 C 684.47 302.59, 685.36 302.64, 686.99 302.60 C 688.61 302.57, 689.47 302.42, 691.07 301.99 C 692.67 301.56, 693.50 301.23, 694.99 300.45 C 696.47 299.68, 697.20 299.16, 698.48 298.11 C 699.77 297.07, 700.39 296.45, 701.43 295.20 C 702.46 293.96, 702.94 293.23, 703.66 291.89 C 704.39 290.55, 704.61 289.80, 705.05 288.48 C 705.49 287.17, 705.77 286.54, 705.86 285.30 C 705.95 284.07, 705.99 283.18, 705.50 282.32 C 705.00 281.45, 704.27 281.07, 703.38 280.98 C 702.49 280.89, 701.77 281.15, 701.06 281.84 C 700.34 282.54, 699.98 283.26, 699.80 284.47 C 699.62 285.68, 699.84 286.49, 700.15 287.90 C 700.46 289.31, 700.77 290.10, 701.35 291.54 C 701.93 292.97, 702.34 293.73, 703.07 295.08 C 703.81 296.44, 704.16 297.09, 705.04 298.33 C 705.91 299.57, 706.39 300.25, 707.43 301.28 C 708.47 302.30, 709.14 302.80, 710.24 303.45 C 711.34 304.09, 711.98 304.31, 712.93 304.51 C 713.88 304.71, 714.35 304.61, 714.98 304.44 C 715.62 304.28, 715.88 304.07, 716.11 303.69 C 716.33 303.30, 716.25 302.90, 716.12 302.51 C 715.98 302.12, 715.80 302.07, 715.45 301.74 C 715.09 301.41, 714.91 301.22, 714.33 300.84 C 713.75 300.45, 713.29 300.35, 712.54 299.81 C 711.78 299.28, 711.31 298.98, 710.54 298.18 C 709.77 297.39, 709.38 296.88, 708.71 295.84 C 708.04 294.81, 707.74 294.20, 707.19 293.01 C 706.65 291.82, 706.34 291.13, 705.99 289.91 C 705.64 288.69, 705.63 288.01, 705.46 286.90 C 705.29 285.78, 705.38 285.19, 705.15 284.34 C 704.91 283.49, 704.73 283.09, 704.30 282.65 C 703.86 282.22, 703.46 282.13, 702.98 282.17 C 702.50 282.21, 702.19 282.35, 701.90 282.86 C 701.62 283.38, 701.72 283.90, 701.55 284.76 C 701.37 285.61, 701.37 286.13, 701.03 287.13 C 700.68 288.14, 700.44 288.74, 699.84 289.78 C 699.25 290.83, 698.88 291.39, 698.05 292.36 C 697.22 293.34, 696.71 293.83, 695.68 294.65 C 694.66 295.47, 694.07 295.88, 692.91 296.48 C 691.76 297.08, 691.11 297.33, 689.90 297.65 C 688.70 297.97, 688.05 298.04, 686.88 298.08 C 685.71 298.11, 685.08 298.06, 684.05 297.83 C 683.02 297.60, 682.51 297.42, 681.72 296.94 C 680.93 296.45, 680.62 296.13, 680.10 295.41 C 679.59 294.69, 679.38 294.24, 679.13 293.33 C 678.88 292.43, 678.80 291.91, 678.85 290.88 C 678.90 289.85, 679.08 289.27, 679.40 288.16 C 679.73 287.06, 679.92 286.39, 680.47 285.36 C 681.02 284.32, 681.32 283.81, 682.14 282.99 C 682.95 282.16, 683.49 281.84, 684.54 281.24 C 685.58 280.63, 686.20 280.37, 687.36 279.96 C 688.53 279.56, 689.23 279.41, 690.37 279.20 C 691.50 278.99, 692.07 278.96, 693.03 278.92 C 693.99 278.87, 694.54 278.87, 695.18 278.97 C 695.82 279.07, 695.91 279.08, 696.21 279.40 C 696.52 279.72, 696.45 280.10, 696.70 280.58 C 696.96 281.05, 697.06 281.32, 697.48 281.75 C 697.91 282.18, 698.17 282.62, 698.83 282.71 C 699.49 282.81, 700.28 282.70, 700.81 282.24" style="stroke: black; fill: black;"/><path d="M 716.92,282.13 C 716.55 282.51, 716.37 282.65, 716.28 283.21 C 716.19 283.77, 716.17 284.21, 716.48 284.93 C 716.78 285.65, 717.18 285.99, 717.83 286.81 C 718.47 287.63, 718.86 288.06, 719.71 289.01 C 720.56 289.96, 721.05 290.59, 722.07 291.56 C 723.09 292.53, 723.69 292.99, 724.81 293.86 C 725.93 294.74, 726.51 295.15, 727.65 295.93 C 728.79 296.71, 729.37 297.13, 730.51 297.77 C 731.64 298.41, 732.28 298.67, 733.34 299.12 C 734.41 299.57, 734.86 299.70, 735.84 300.01 C 736.81 300.32, 737.25 300.55, 738.20 300.68 C 739.16 300.81, 739.72 300.82, 740.60 300.66 C 741.47 300.50, 742.01 300.37, 742.58 299.88 C 743.15 299.38, 743.54 298.84, 743.46 298.18 C 743.38 297.53, 742.70 296.91, 742.17 296.62 C 741.64 296.34, 741.22 296.71, 740.82 296.76 C 740.43 296.82, 740.59 296.91, 740.19 296.88 C 739.80 296.86, 739.48 296.77, 738.86 296.64 C 738.24 296.51, 737.83 296.50, 737.08 296.25 C 736.33 295.99, 735.98 295.81, 735.12 295.35 C 734.26 294.89, 733.75 294.57, 732.78 293.95 C 731.80 293.33, 731.24 292.98, 730.23 292.26 C 729.22 291.53, 728.66 291.14, 727.72 290.32 C 726.78 289.50, 726.35 289.09, 725.53 288.18 C 724.72 287.27, 724.34 286.68, 723.64 285.76 C 722.94 284.85, 722.61 284.35, 722.05 283.59 C 721.48 282.82, 721.35 282.42, 720.82 281.93 C 720.30 281.43, 719.96 281.26, 719.41 281.13 C 718.87 281.00, 718.59 281.07, 718.09 281.27 C 717.59 281.47, 717.28 281.74, 716.92 282.13" style="stroke: black; fill: black;"/><path d="M 753.77,279.97 C 753.15 279.84, 752.78 279.96, 752.07 280.41 C 751.36 280.85, 750.88 281.27, 750.21 282.20 C 749.54 283.13, 749.40 283.83, 748.73 285.07 C 748.05 286.31, 747.65 286.93, 746.82 288.42 C 745.99 289.91, 745.52 290.79, 744.56 292.50 C 743.60 294.21, 743.07 295.12, 742.02 296.97 C 740.98 298.81, 740.42 299.79, 739.34 301.73 C 738.26 303.67, 737.67 304.72, 736.63 306.66 C 735.58 308.60, 735.11 309.56, 734.12 311.43 C 733.13 313.30, 732.54 314.24, 731.68 316.01 C 730.82 317.79, 730.35 318.77, 729.81 320.30 C 729.28 321.84, 729.16 322.57, 728.98 323.69 C 728.80 324.81, 728.82 325.22, 728.91 325.90 C 728.99 326.58, 729.11 326.81, 729.41 327.09 C 729.70 327.37, 730.01 327.40, 730.38 327.30 C 730.76 327.20, 730.85 327.08, 731.27 326.59 C 731.70 326.10, 732.03 325.78, 732.52 324.84 C 733.01 323.89, 733.10 323.24, 733.72 321.87 C 734.35 320.50, 734.78 319.66, 735.64 317.99 C 736.50 316.32, 737.04 315.35, 738.03 313.52 C 739.02 311.68, 739.51 310.73, 740.58 308.83 C 741.65 306.93, 742.26 305.92, 743.37 304.02 C 744.47 302.12, 745.03 301.14, 746.10 299.32 C 747.17 297.49, 747.74 296.58, 748.73 294.90 C 749.72 293.21, 750.16 292.35, 751.04 290.88 C 751.93 289.41, 752.46 288.79, 753.17 287.56 C 753.88 286.32, 754.18 285.67, 754.60 284.69 C 755.02 283.70, 755.15 283.37, 755.26 282.64 C 755.37 281.91, 755.45 281.57, 755.15 281.04 C 754.85 280.50, 754.39 280.09, 753.77 279.97" style="stroke: black; fill: black;"/><path d="M 811.56,261.42 C 811.70 261.94, 811.91 262.17, 812.19 262.48 C 812.46 262.80, 812.56 262.83, 812.93 263.00 C 813.30 263.17, 813.41 263.14, 814.04 263.33 C 814.66 263.51, 815.13 263.62, 816.04 263.91 C 816.96 264.21, 817.50 264.38, 818.62 264.79 C 819.75 265.20, 820.35 265.43, 821.67 265.96 C 823.00 266.48, 823.67 266.86, 825.24 267.43 C 826.81 268.00, 827.82 268.28, 829.53 268.79 C 831.24 269.30, 832.15 269.47, 833.81 269.96 C 835.47 270.44, 836.29 270.69, 837.83 271.22 C 839.37 271.75, 840.11 272.02, 841.50 272.63 C 842.89 273.24, 843.52 273.57, 844.78 274.25 C 846.03 274.94, 846.68 275.31, 847.77 276.04 C 848.87 276.77, 849.33 277.14, 850.24 277.91 C 851.15 278.67, 851.57 279.06, 852.32 279.85 C 853.07 280.63, 853.37 281.04, 853.97 281.84 C 854.57 282.64, 854.80 283.08, 855.31 283.86 C 855.81 284.63, 856.09 285.03, 856.49 285.72 C 856.90 286.42, 857.04 286.80, 857.33 287.33 C 857.61 287.85, 857.78 288.03, 857.91 288.36 C 858.04 288.68, 858.01 288.79, 857.98 288.95 C 857.95 289.12, 857.99 289.13, 857.78 289.20 C 857.57 289.27, 857.38 289.17, 856.95 289.29 C 856.51 289.42, 856.28 289.64, 855.61 289.82 C 854.93 290.00, 854.62 290.05, 853.59 290.20 C 852.56 290.35, 851.85 290.38, 850.47 290.58 C 849.09 290.77, 848.33 290.91, 846.71 291.16 C 845.08 291.41, 844.19 291.54, 842.36 291.83 C 840.52 292.11, 839.53 292.30, 837.52 292.59 C 835.52 292.87, 834.46 292.99, 832.33 293.24 C 830.20 293.49, 829.03 293.60, 826.87 293.84 C 824.72 294.09, 823.61 294.26, 821.58 294.46 C 819.54 294.66, 818.54 294.75, 816.69 294.84 C 814.85 294.93, 813.91 294.87, 812.34 294.91 C 810.76 294.94, 810.01 294.87, 808.82 294.99 C 807.62 295.12, 807.10 295.24, 806.35 295.53 C 805.61 295.83, 805.32 296.04, 805.09 296.45 C 804.85 296.86, 804.92 297.22, 805.19 297.59 C 805.45 297.96, 805.69 298.02, 806.40 298.28 C 807.11 298.55, 807.56 298.75, 808.74 298.92 C 809.92 299.09, 810.68 299.08, 812.31 299.13 C 813.93 299.19, 814.92 299.24, 816.85 299.19 C 818.78 299.14, 819.86 299.05, 821.96 298.89 C 824.06 298.73, 825.16 298.61, 827.34 298.40 C 829.52 298.20, 830.69 298.11, 832.85 297.87 C 835.02 297.64, 836.12 297.51, 838.16 297.24 C 840.20 296.96, 841.21 296.77, 843.05 296.51 C 844.90 296.24, 845.77 296.13, 847.39 295.91 C 849.00 295.70, 849.73 295.63, 851.13 295.44 C 852.54 295.25, 853.23 295.20, 854.42 294.97 C 855.61 294.73, 856.11 294.62, 857.07 294.26 C 858.03 293.91, 858.51 293.74, 859.22 293.19 C 859.94 292.64, 860.22 292.23, 860.64 291.53 C 861.05 290.84, 861.11 290.46, 861.30 289.72 C 861.48 288.99, 861.57 288.64, 861.55 287.85 C 861.53 287.06, 861.45 286.63, 861.18 285.78 C 860.91 284.92, 860.67 284.44, 860.19 283.60 C 859.71 282.75, 859.35 282.40, 858.77 281.55 C 858.20 280.70, 857.99 280.27, 857.31 279.35 C 856.63 278.44, 856.24 277.90, 855.37 276.98 C 854.50 276.05, 854.00 275.61, 852.96 274.71 C 851.92 273.82, 851.41 273.34, 850.18 272.49 C 848.95 271.65, 848.21 271.23, 846.82 270.48 C 845.43 269.72, 844.72 269.41, 843.23 268.74 C 841.73 268.07, 840.95 267.75, 839.35 267.12 C 837.74 266.49, 836.89 266.18, 835.21 265.59 C 833.53 265.00, 832.62 264.72, 830.95 264.18 C 829.27 263.65, 828.34 263.42, 826.83 262.91 C 825.32 262.39, 824.70 262.14, 823.42 261.61 C 822.13 261.09, 821.53 260.78, 820.40 260.29 C 819.26 259.81, 818.75 259.60, 817.75 259.20 C 816.76 258.80, 816.34 258.53, 815.43 258.29 C 814.53 258.05, 813.97 257.90, 813.24 258.00 C 812.52 258.10, 812.16 258.42, 811.81 258.80 C 811.46 259.18, 811.54 259.37, 811.49 259.89 C 811.44 260.42, 811.42 260.91, 811.56 261.42" style="stroke: black; fill: black;"/><path d="M 876.56,278.36 C 876.64 277.73, 876.49 277.31, 876.04 276.77 C 875.59 276.22, 875.16 275.95, 874.31 275.64 C 873.46 275.32, 872.87 275.20, 871.79 275.18 C 870.71 275.16, 870.08 275.32, 868.92 275.54 C 867.75 275.76, 867.22 275.84, 865.96 276.27 C 864.71 276.71, 863.95 276.98, 862.65 277.71 C 861.35 278.43, 860.66 278.90, 859.47 279.91 C 858.28 280.92, 857.65 281.53, 856.71 282.75 C 855.76 283.97, 855.31 284.62, 854.74 286.00 C 854.17 287.39, 853.91 288.19, 853.85 289.69 C 853.80 291.19, 853.85 292.05, 854.44 293.49 C 855.03 294.94, 855.61 295.73, 856.80 296.90 C 857.99 298.07, 858.76 298.52, 860.38 299.35 C 862.00 300.17, 862.96 300.52, 864.90 301.02 C 866.85 301.51, 868.02 301.71, 870.12 301.82 C 872.22 301.93, 873.34 301.80, 875.39 301.58 C 877.43 301.36, 878.54 301.23, 880.37 300.70 C 882.19 300.18, 883.03 299.76, 884.49 298.94 C 885.96 298.13, 886.62 297.71, 887.70 296.62 C 888.79 295.53, 889.35 294.83, 889.92 293.49 C 890.48 292.16, 890.55 291.36, 890.52 289.94 C 890.49 288.53, 890.29 287.75, 889.75 286.42 C 889.21 285.09, 888.76 284.44, 887.83 283.28 C 886.90 282.13, 886.29 281.57, 885.10 280.65 C 883.92 279.73, 883.26 279.13, 881.91 278.69 C 880.56 278.26, 879.21 278.12, 878.34 278.47 C 877.47 278.82, 877.25 279.62, 877.55 280.44 C 877.85 281.26, 878.93 281.82, 879.86 282.58 C 880.79 283.35, 881.32 283.54, 882.22 284.28 C 883.11 285.01, 883.61 285.48, 884.34 286.27 C 885.08 287.06, 885.44 287.43, 885.88 288.21 C 886.32 289.00, 886.47 289.44, 886.57 290.19 C 886.67 290.94, 886.70 291.26, 886.39 291.98 C 886.07 292.70, 885.73 293.12, 884.98 293.80 C 884.23 294.48, 883.77 294.84, 882.64 295.38 C 881.51 295.92, 880.84 296.17, 879.31 296.49 C 877.77 296.80, 876.76 296.85, 874.98 296.97 C 873.20 297.08, 872.19 297.19, 870.40 297.07 C 868.61 296.96, 867.65 296.75, 866.04 296.37 C 864.43 295.99, 863.60 295.73, 862.34 295.19 C 861.08 294.65, 860.56 294.36, 859.73 293.69 C 858.91 293.02, 858.58 292.60, 858.20 291.84 C 857.82 291.09, 857.78 290.73, 857.85 289.91 C 857.92 289.09, 858.10 288.59, 858.55 287.74 C 859.00 286.88, 859.32 286.46, 860.10 285.64 C 860.89 284.82, 861.49 284.39, 862.48 283.65 C 863.47 282.90, 864.04 282.51, 865.06 281.91 C 866.08 281.30, 866.67 281.00, 867.59 280.63 C 868.51 280.25, 868.88 280.12, 869.66 280.02 C 870.43 279.91, 870.80 280.02, 871.46 280.12 C 872.13 280.21, 872.39 280.42, 872.97 280.50 C 873.56 280.58, 873.86 280.63, 874.40 280.52 C 874.94 280.40, 875.23 280.37, 875.66 279.93 C 876.09 279.50, 876.48 279.00, 876.56 278.36" style="stroke: black; fill: black;"/><path d="M 896.27,276.10 C 895.78 276.51, 895.69 276.92, 895.56 277.72 C 895.44 278.52, 895.45 279.06, 895.64 280.11 C 895.83 281.17, 896.14 281.77, 896.50 282.98 C 896.86 284.19, 897.05 284.87, 897.46 286.19 C 897.86 287.51, 898.15 288.24, 898.53 289.59 C 898.90 290.95, 899.10 291.63, 899.35 292.97 C 899.60 294.31, 899.49 295.04, 899.78 296.30 C 900.08 297.57, 900.24 298.50, 900.81 299.29 C 901.39 300.09, 901.94 300.19, 902.67 300.27 C 903.41 300.35, 903.88 300.21, 904.48 299.67 C 905.09 299.14, 905.53 298.63, 905.70 297.61 C 905.86 296.59, 905.69 295.82, 905.31 294.56 C 904.93 293.30, 904.37 292.58, 903.79 291.31 C 903.21 290.04, 902.83 289.41, 902.41 288.20 C 901.99 287.00, 901.89 286.42, 901.69 285.27 C 901.50 284.13, 901.44 283.51, 901.43 282.48 C 901.42 281.45, 901.42 280.99, 901.65 280.14 C 901.87 279.29, 902.07 278.92, 902.55 278.23 C 903.03 277.54, 903.29 277.21, 904.05 276.69 C 904.82 276.17, 905.28 275.99, 906.39 275.62 C 907.51 275.25, 908.38 275.22, 909.65 274.85 C 910.91 274.48, 911.69 274.26, 912.73 273.76 C 913.76 273.27, 914.44 272.98, 914.83 272.38 C 915.23 271.78, 915.22 271.29, 914.69 270.78 C 914.16 270.26, 913.42 269.98, 912.18 269.80 C 910.93 269.62, 909.99 269.59, 908.47 269.88 C 906.94 270.17, 905.95 270.56, 904.55 271.26 C 903.14 271.96, 902.52 272.45, 901.45 273.38 C 900.37 274.32, 899.92 274.80, 899.17 275.92 C 898.42 277.05, 898.08 277.71, 897.69 279.00 C 897.29 280.29, 897.27 281.03, 897.21 282.40 C 897.16 283.77, 897.25 284.45, 897.40 285.85 C 897.55 287.25, 897.67 287.98, 897.96 289.41 C 898.26 290.83, 898.54 291.62, 898.87 292.99 C 899.19 294.37, 899.24 295.12, 899.59 296.28 C 899.93 297.44, 900.02 298.05, 900.59 298.78 C 901.15 299.50, 901.73 299.77, 902.41 299.90 C 903.08 300.03, 903.52 299.81, 903.97 299.44 C 904.43 299.08, 904.60 298.88, 904.68 298.08 C 904.75 297.28, 904.52 296.64, 904.35 295.45 C 904.18 294.26, 904.11 293.53, 903.84 292.13 C 903.58 290.72, 903.39 289.84, 903.04 288.41 C 902.69 286.98, 902.39 286.31, 902.08 284.96 C 901.77 283.60, 901.80 282.90, 901.50 281.64 C 901.19 280.38, 900.99 279.64, 900.57 278.65 C 900.15 277.65, 899.90 277.26, 899.39 276.67 C 898.87 276.07, 898.63 275.77, 898.01 275.66 C 897.39 275.54, 896.76 275.68, 896.27 276.10" style="stroke: black; fill: black;"/><path d="M 944.84,281.16 C 945.16 280.57, 945.09 280.09, 944.86 279.34 C 944.63 278.59, 944.38 278.12, 943.70 277.41 C 943.02 276.70, 942.42 276.34, 941.46 275.80 C 940.50 275.25, 940.03 275.11, 938.91 274.67 C 937.80 274.23, 937.22 273.90, 935.89 273.61 C 934.57 273.31, 933.72 273.21, 932.29 273.20 C 930.85 273.20, 930.12 273.34, 928.72 273.59 C 927.32 273.83, 926.60 273.98, 925.27 274.42 C 923.93 274.86, 923.21 275.10, 922.04 275.78 C 920.88 276.45, 920.30 276.84, 919.46 277.78 C 918.61 278.72, 918.22 279.29, 917.82 280.46 C 917.41 281.62, 917.28 282.32, 917.42 283.59 C 917.57 284.86, 917.82 285.64, 918.56 286.80 C 919.31 287.97, 919.95 288.55, 921.15 289.42 C 922.35 290.28, 923.12 290.57, 924.56 291.13 C 926.00 291.68, 926.79 291.89, 928.36 292.19 C 929.94 292.49, 930.81 292.54, 932.44 292.62 C 934.07 292.70, 934.93 292.68, 936.52 292.59 C 938.12 292.49, 938.97 292.38, 940.43 292.17 C 941.89 291.95, 942.58 291.80, 943.81 291.50 C 945.05 291.21, 945.65 291.05, 946.59 290.70 C 947.52 290.35, 947.92 290.12, 948.49 289.76 C 949.05 289.39, 949.25 289.17, 949.43 288.85 C 949.62 288.54, 949.67 288.30, 949.41 288.18 C 949.14 288.06, 948.48 287.98, 948.11 288.26 C 947.73 288.55, 947.52 288.93, 947.52 289.61 C 947.52 290.28, 947.72 290.71, 948.11 291.65 C 948.50 292.59, 948.85 293.18, 949.47 294.32 C 950.10 295.45, 950.50 296.08, 951.23 297.33 C 951.96 298.57, 952.36 299.22, 953.12 300.53 C 953.88 301.85, 954.30 302.51, 955.02 303.89 C 955.74 305.28, 956.05 306.05, 956.70 307.47 C 957.36 308.89, 957.71 309.65, 958.29 310.99 C 958.87 312.33, 959.18 312.94, 959.61 314.16 C 960.03 315.39, 960.17 316.01, 960.40 317.09 C 960.63 318.18, 960.72 318.65, 960.75 319.60 C 960.78 320.54, 960.72 320.99, 960.54 321.82 C 960.37 322.64, 960.27 323.03, 959.89 323.72 C 959.51 324.40, 959.29 324.66, 958.65 325.24 C 958.01 325.82, 957.59 326.09, 956.69 326.60 C 955.79 327.11, 955.27 327.39, 954.15 327.80 C 953.02 328.20, 952.40 328.41, 951.09 328.64 C 949.77 328.87, 949.06 328.94, 947.58 328.95 C 946.11 328.97, 945.35 328.90, 943.72 328.70 C 942.09 328.50, 941.13 328.29, 939.44 327.95 C 937.75 327.62, 936.87 327.47, 935.27 327.02 C 933.67 326.57, 932.85 326.33, 931.43 325.69 C 930.02 325.04, 929.27 324.59, 928.20 323.81 C 927.13 323.02, 926.64 322.73, 926.10 321.77 C 925.56 320.81, 925.68 320.14, 925.51 319.02 C 925.33 317.89, 925.41 317.20, 925.22 316.15 C 925.03 315.10, 925.02 314.31, 924.55 313.78 C 924.08 313.25, 923.49 313.06, 922.85 313.48 C 922.21 313.91, 921.68 314.68, 921.35 315.92 C 921.02 317.16, 920.96 318.12, 921.21 319.70 C 921.46 321.27, 921.74 322.30, 922.60 323.78 C 923.47 325.27, 924.16 325.94, 925.55 327.12 C 926.93 328.30, 927.84 328.85, 929.53 329.68 C 931.22 330.52, 932.21 330.73, 934.00 331.29 C 935.79 331.85, 936.65 332.07, 938.49 332.47 C 940.33 332.87, 941.36 333.10, 943.19 333.30 C 945.01 333.50, 945.90 333.50, 947.63 333.48 C 949.37 333.46, 950.23 333.45, 951.86 333.19 C 953.49 332.92, 954.34 332.70, 955.78 332.14 C 957.22 331.58, 957.89 331.18, 959.06 330.40 C 960.23 329.63, 960.73 329.20, 961.63 328.25 C 962.53 327.31, 962.96 326.80, 963.55 325.68 C 964.14 324.55, 964.33 323.86, 964.58 322.63 C 964.82 321.39, 964.79 320.76, 964.77 319.50 C 964.74 318.24, 964.68 317.67, 964.46 316.34 C 964.24 315.01, 964.09 314.26, 963.66 312.86 C 963.24 311.46, 962.90 310.78, 962.35 309.34 C 961.79 307.89, 961.52 307.14, 960.89 305.63 C 960.25 304.12, 959.90 303.27, 959.16 301.79 C 958.42 300.32, 957.93 299.61, 957.20 298.25 C 956.47 296.90, 956.11 296.27, 955.51 295.03 C 954.90 293.79, 954.63 293.18, 954.18 292.07 C 953.73 290.95, 953.63 290.33, 953.24 289.45 C 952.85 288.57, 952.72 288.20, 952.23 287.68 C 951.74 287.17, 951.45 287.09, 950.81 286.88 C 950.18 286.66, 949.61 286.67, 949.06 286.61 C 948.52 286.56, 948.43 286.59, 948.08 286.59 C 947.73 286.60, 947.81 286.60, 947.30 286.64 C 946.79 286.68, 946.40 286.65, 945.53 286.79 C 944.66 286.93, 944.08 287.14, 942.95 287.33 C 941.82 287.53, 941.21 287.64, 939.88 287.77 C 938.55 287.90, 937.75 287.94, 936.31 287.99 C 934.87 288.05, 934.07 288.09, 932.66 288.03 C 931.25 287.96, 930.52 287.92, 929.24 287.66 C 927.95 287.41, 927.34 287.19, 926.25 286.76 C 925.16 286.33, 924.61 286.04, 923.78 285.53 C 922.96 285.02, 922.60 284.73, 922.11 284.21 C 921.62 283.68, 921.48 283.42, 921.33 282.92 C 921.17 282.42, 921.16 282.18, 921.34 281.72 C 921.51 281.25, 921.67 281.01, 922.20 280.61 C 922.74 280.20, 923.14 280.04, 924.03 279.67 C 924.91 279.30, 925.55 279.07, 926.63 278.75 C 927.71 278.42, 928.33 278.21, 929.45 278.05 C 930.56 277.88, 931.11 277.88, 932.20 277.92 C 933.30 277.96, 933.92 278.06, 934.93 278.25 C 935.94 278.44, 936.45 278.55, 937.25 278.87 C 938.05 279.19, 938.32 279.42, 938.94 279.85 C 939.56 280.29, 939.81 280.63, 940.36 281.04 C 940.90 281.46, 941.08 281.68, 941.66 281.93 C 942.24 282.18, 942.62 282.45, 943.26 282.30 C 943.90 282.15, 944.52 281.75, 944.84 281.16" style="stroke: black; fill: black;"/><path d="M 967.87,288.56 C 968.35 289.07, 968.93 289.15, 969.84 289.22 C 970.74 289.29, 971.30 289.17, 972.41 288.91 C 973.51 288.65, 974.16 288.40, 975.34 287.93 C 976.52 287.45, 977.14 287.12, 978.30 286.54 C 979.45 285.97, 980.07 285.70, 981.11 285.07 C 982.14 284.45, 982.61 284.10, 983.47 283.42 C 984.32 282.74, 984.77 282.46, 985.39 281.66 C 986.00 280.87, 986.31 280.41, 986.54 279.46 C 986.77 278.52, 986.77 277.89, 986.52 276.94 C 986.28 275.99, 986.01 275.46, 985.32 274.70 C 984.63 273.94, 984.11 273.61, 983.08 273.15 C 982.06 272.68, 981.44 272.55, 980.18 272.37 C 978.93 272.20, 978.24 272.20, 976.80 272.28 C 975.35 272.36, 974.52 272.40, 972.97 272.76 C 971.42 273.12, 970.56 273.43, 969.04 274.09 C 967.53 274.76, 966.76 275.18, 965.39 276.07 C 964.01 276.96, 963.30 277.47, 962.18 278.53 C 961.06 279.60, 960.56 280.22, 959.77 281.41 C 958.98 282.60, 958.65 283.19, 958.22 284.49 C 957.78 285.79, 957.56 286.52, 957.61 287.91 C 957.66 289.31, 957.87 290.09, 958.47 291.48 C 959.07 292.88, 959.45 293.64, 960.62 294.89 C 961.79 296.14, 962.62 296.72, 964.31 297.72 C 966.01 298.72, 967.01 299.15, 969.08 299.87 C 971.15 300.60, 972.33 300.87, 974.66 301.36 C 976.99 301.85, 978.31 302.02, 980.74 302.30 C 983.18 302.58, 984.50 302.67, 986.84 302.76 C 989.18 302.84, 990.42 302.80, 992.45 302.74 C 994.48 302.68, 995.50 302.64, 997.00 302.47 C 998.50 302.30, 999.06 302.17, 999.96 301.88 C 1000.86 301.58, 1001.10 301.31, 1001.50 300.99 C 1001.90 300.67, 1001.88 300.55, 1001.94 300.26 C 1002.00 299.98, 1001.95 299.80, 1001.80 299.56 C 1001.64 299.32, 1001.61 299.24, 1001.18 299.06 C 1000.74 298.87, 1000.49 298.75, 999.62 298.64 C 998.76 298.53, 998.29 298.57, 996.86 298.51 C 995.42 298.44, 994.42 298.38, 992.46 298.31 C 990.50 298.24, 989.30 298.30, 987.07 298.17 C 984.84 298.03, 983.60 297.91, 981.32 297.62 C 979.03 297.32, 977.78 297.13, 975.64 296.68 C 973.51 296.22, 972.45 295.97, 970.64 295.35 C 968.84 294.74, 968.00 294.33, 966.62 293.61 C 965.25 292.89, 964.65 292.52, 963.79 291.73 C 962.93 290.94, 962.76 290.47, 962.31 289.66 C 961.87 288.85, 961.65 288.44, 961.57 287.68 C 961.49 286.91, 961.60 286.59, 961.92 285.82 C 962.23 285.04, 962.50 284.62, 963.13 283.81 C 963.77 283.01, 964.16 282.56, 965.10 281.79 C 966.03 281.02, 966.64 280.62, 967.79 279.94 C 968.94 279.26, 969.61 278.89, 970.85 278.40 C 972.10 277.90, 972.75 277.71, 974.00 277.45 C 975.24 277.20, 975.95 277.20, 977.08 277.13 C 978.20 277.06, 978.77 277.03, 979.64 277.10 C 980.51 277.17, 980.81 277.33, 981.41 277.49 C 982.02 277.65, 982.29 277.80, 982.66 277.91 C 983.02 278.03, 983.12 277.96, 983.23 278.06 C 983.35 278.16, 983.37 278.24, 983.24 278.42 C 983.11 278.61, 983.04 278.68, 982.59 278.99 C 982.15 279.31, 981.73 279.56, 981.02 280.01 C 980.30 280.45, 979.95 280.79, 979.03 281.22 C 978.11 281.65, 977.53 281.77, 976.43 282.16 C 975.32 282.55, 974.62 282.76, 973.51 283.17 C 972.39 283.58, 971.81 283.79, 970.86 284.21 C 969.91 284.62, 969.46 284.75, 968.77 285.24 C 968.08 285.74, 967.61 286.02, 967.42 286.69 C 967.24 287.35, 967.39 288.06, 967.87 288.56" style="stroke: black; fill: black;"/><path d="M 1018.27,253.13 C 1017.73 253.47, 1017.65 253.89, 1017.43 254.56 C 1017.22 255.22, 1017.25 255.53, 1017.18 256.46 C 1017.11 257.39, 1017.04 257.94, 1017.07 259.21 C 1017.10 260.49, 1017.18 261.31, 1017.33 262.81 C 1017.49 264.32, 1017.61 265.11, 1017.83 266.72 C 1018.06 268.33, 1018.19 269.21, 1018.47 270.88 C 1018.75 272.55, 1018.93 273.35, 1019.23 275.05 C 1019.53 276.75, 1019.63 277.79, 1019.97 279.38 C 1020.32 280.98, 1020.62 281.77, 1020.95 283.03 C 1021.29 284.28, 1021.37 284.84, 1021.66 285.67 C 1021.96 286.49, 1022.13 286.68, 1022.42 287.15 C 1022.70 287.63, 1022.72 287.88, 1023.09 288.04 C 1023.46 288.21, 1023.93 288.22, 1024.28 287.99 C 1024.64 287.77, 1024.69 287.48, 1024.87 286.92 C 1025.06 286.37, 1025.15 286.15, 1025.22 285.22 C 1025.29 284.28, 1025.35 283.60, 1025.22 282.25 C 1025.08 280.90, 1024.83 280.09, 1024.54 278.48 C 1024.25 276.87, 1024.10 275.88, 1023.78 274.21 C 1023.47 272.55, 1023.21 271.76, 1022.96 270.16 C 1022.71 268.55, 1022.68 267.73, 1022.55 266.19 C 1022.42 264.64, 1022.39 263.87, 1022.31 262.43 C 1022.24 260.99, 1022.26 260.23, 1022.18 258.99 C 1022.11 257.75, 1022.08 257.19, 1021.92 256.23 C 1021.75 255.26, 1021.71 254.84, 1021.36 254.17 C 1021.01 253.50, 1020.78 253.09, 1020.16 252.88 C 1019.55 252.68, 1018.82 252.80, 1018.27 253.13" style="stroke: black; fill: black;"/><path d="M 1022.91,301.42 C 1022.27 301.20, 1021.85 301.31, 1021.58 301.32 C 1021.30 301.33, 1021.41 301.41, 1021.52 301.47 C 1021.64 301.52, 1022.00 301.39, 1022.15 301.59 C 1022.31 301.79, 1022.29 301.95, 1022.31 302.47 C 1022.33 303.00, 1022.05 303.68, 1022.25 304.21 C 1022.45 304.74, 1022.77 305.04, 1023.30 305.12 C 1023.83 305.20, 1024.45 304.91, 1024.90 304.60 C 1025.35 304.30, 1025.58 304.02, 1025.55 303.58 C 1025.53 303.14, 1025.31 302.84, 1024.79 302.41 C 1024.26 301.97, 1023.56 301.63, 1022.91 301.42" style="stroke: black; fill: black;"/></svg>